<svg width="80" height="80" viewBox="0 0 80 80" fill="none" xmlns="http://www.w3.org/2000/svg">
<circle cx="40" cy="40" r="40" fill="#FF69B4"/>
<path d="M47.1111 27.5557L44.5867 30.0801L41.76 27.2535V47.1112H38.24V27.2535L35.4133 30.0801L32.8889 27.5557L40 20.4446L47.1111 27.5557ZM54.2222 36.4446V56.0001C54.2222 57.9557 52.6222 59.5557 50.6667 59.5557H29.3333C27.36 59.5557 25.7778 57.9557 25.7778 56.0001V36.4446C25.7778 34.4712 27.36 32.889 29.3333 32.889H34.6667V36.4446H29.3333V56.0001H50.6667V36.4446H45.3333V32.889H50.6667C52.6222 32.889 54.2222 34.4712 54.2222 36.4446Z" fill="#333333"/>
</svg>
