<svg width="56" height="56" viewBox="0 0 56 56" fill="none" xmlns="http://www.w3.org/2000/svg">
<circle cx="28" cy="28" r="28" fill="#FF69B4"/>
<path d="M32.9778 19.2893L31.2107 21.0564L29.232 19.0777V32.9782H26.768V19.0777L24.7893 21.0564L23.0222 19.2893L28 14.3115L32.9778 19.2893ZM37.9556 25.5115V39.2004C37.9556 40.5693 36.8356 41.6893 35.4667 41.6893H20.5333C19.152 41.6893 18.0444 40.5693 18.0444 39.2004V25.5115C18.0444 24.1302 19.152 23.0226 20.5333 23.0226H24.2667V25.5115H20.5333V39.2004H35.4667V25.5115H31.7333V23.0226H35.4667C36.8356 23.0226 37.9556 24.1302 37.9556 25.5115Z" fill="#333333"/>
</svg>
