<svg width="56" height="56" viewBox="0 0 56 56" fill="none" xmlns="http://www.w3.org/2000/svg">
<circle cx="28" cy="28" r="28" fill="#FF69B4"/>
<path d="M32.9778 19.2888L31.2107 21.0559L29.232 19.0773V32.9777H26.768V19.0773L24.7893 21.0559L23.0222 19.2888L28 14.311L32.9778 19.2888ZM37.9556 25.511V39.1999C37.9556 40.5688 36.8356 41.6888 35.4667 41.6888H20.5333C19.152 41.6888 18.0444 40.5688 18.0444 39.1999V25.511C18.0444 24.1297 19.152 23.0221 20.5333 23.0221H24.2667V25.511H20.5333V39.1999H35.4667V25.511H31.7333V23.0221H35.4667C36.8356 23.0221 37.9556 24.1297 37.9556 25.511Z" fill="#333333"/>
</svg>
