<svg width="40" height="40" viewBox="0 0 40 40" fill="none" xmlns="http://www.w3.org/2000/svg">
<circle cx="20" cy="20" r="20" fill="#FF69B4"/>
<g clip-path="url(#clip0_161_1303)">
<path d="M23.5556 13.7777L22.2934 15.0399L20.88 13.6266V23.5555H19.12V13.6266L17.7067 15.0399L16.4445 13.7777L20 10.2222L23.5556 13.7777ZM27.1111 18.2222V27.9999C27.1111 28.9777 26.3111 29.7777 25.3334 29.7777H14.6667C13.68 29.7777 12.8889 28.9777 12.8889 27.9999V18.2222C12.8889 17.2355 13.68 16.4444 14.6667 16.4444H17.3334V18.2222H14.6667V27.9999H25.3334V18.2222H22.6667V16.4444H25.3334C26.3111 16.4444 27.1111 17.2355 27.1111 18.2222Z" fill="#333333"/>
</g>
<defs>
<clipPath id="clip0_161_1303">
<rect width="21.3333" height="21.3333" fill="white" transform="translate(9.33337 9.33325)"/>
</clipPath>
</defs>
</svg>
