<svg width="41" height="40" viewBox="0 0 41 40" fill="none" xmlns="http://www.w3.org/2000/svg">
<circle cx="20.3232" cy="20" r="20" fill="#FF69B4"/>
<g clip-path="url(#clip0_163_1312)">
<path d="M23.8787 13.7777L22.6165 15.0399L21.2031 13.6266V23.5555H19.4431V13.6266L18.0298 15.0399L16.7676 13.7777L20.3231 10.2222L23.8787 13.7777ZM27.4343 18.2222V27.9999C27.4343 28.9777 26.6343 29.7777 25.6565 29.7777H14.9898C14.0031 29.7777 13.212 28.9777 13.212 27.9999V18.2222C13.212 17.2355 14.0031 16.4444 14.9898 16.4444H17.6565V18.2222H14.9898V27.9999H25.6565V18.2222H22.9898V16.4444H25.6565C26.6343 16.4444 27.4343 17.2355 27.4343 18.2222Z" fill="#333333"/>
</g>
<defs>
<clipPath id="clip0_163_1312">
<rect width="21.3333" height="21.3333" fill="white" transform="translate(9.65649 9.33325)"/>
</clipPath>
</defs>
</svg>
