<svg width="41" height="41" viewBox="0 0 41 41" fill="none" xmlns="http://www.w3.org/2000/svg">
<circle cx="20.6418" cy="20.3621" r="20" fill="#FF69B4"/>
<g clip-path="url(#clip0_161_1287)">
<path d="M24.1974 14.1398L22.9352 15.402L21.5219 13.9887V23.9176H19.7619V13.9887L18.3485 15.402L17.0863 14.1398L20.6419 10.5842L24.1974 14.1398ZM27.753 18.5842V28.362C27.753 29.3398 26.953 30.1398 25.9752 30.1398H15.3085C14.3219 30.1398 13.5308 29.3398 13.5308 28.362V18.5842C13.5308 17.5976 14.3219 16.8064 15.3085 16.8064H17.9752V18.5842H15.3085V28.362H25.9752V18.5842H23.3085V16.8064H25.9752C26.953 16.8064 27.753 17.5976 27.753 18.5842Z" fill="#333333"/>
</g>
<defs>
<clipPath id="clip0_161_1287">
<rect width="21.3333" height="21.3333" fill="white" transform="translate(9.97522 9.69531)"/>
</clipPath>
</defs>
</svg>
