<svg width="32" height="32" viewBox="0 0 32 32" fill="none" xmlns="http://www.w3.org/2000/svg">
<g clip-path="url(#clip0_68_407)">
<path d="M14.6667 4C8.04275 4 2.66675 9.376 2.66675 16C2.66675 22.624 8.04275 28 14.6667 28C21.2907 28 26.6667 22.624 26.6667 16C26.6667 9.376 21.2907 4 14.6667 4ZM15.8667 24.4H13.4667V22H15.8667V24.4ZM18.3507 15.1L17.2707 16.204C16.4067 17.08 15.8667 17.8 15.8667 19.6H13.4667V19C13.4667 17.68 14.0067 16.48 14.8707 15.604L16.3587 14.092C16.8027 13.66 17.0667 13.06 17.0667 12.4C17.0667 11.08 15.9867 10 14.6667 10C13.3467 10 12.2667 11.08 12.2667 12.4H9.86675C9.86675 9.748 12.0147 7.6 14.6667 7.6C17.3187 7.6 19.4667 9.748 19.4667 12.4C19.4667 13.456 19.0347 14.416 18.3507 15.1Z" fill="#FF69B4"/>
</g>
<defs>
<clipPath id="clip0_68_407">
<rect width="32" height="32" fill="white"/>
</clipPath>
</defs>
</svg>
