<svg width="80" height="80" viewBox="0 0 80 80" fill="none" xmlns="http://www.w3.org/2000/svg">
<circle cx="40" cy="40" r="40" fill="#FF69B4"/>
<g clip-path="url(#clip0_45_251)">
<path d="M47.1111 27.5556L44.5867 30.08L41.76 27.2533V47.1111H38.24V27.2533L35.4133 30.08L32.8889 27.5556L40 20.4444L47.1111 27.5556ZM54.2222 36.4444V56C54.2222 57.9555 52.6222 59.5555 50.6667 59.5555H29.3333C27.36 59.5555 25.7778 57.9555 25.7778 56V36.4444C25.7778 34.4711 27.36 32.8889 29.3333 32.8889H34.6667V36.4444H29.3333V56H50.6667V36.4444H45.3333V32.8889H50.6667C52.6222 32.8889 54.2222 34.4711 54.2222 36.4444Z" fill="#F0F0F0"/>
</g>
<defs>
<clipPath id="clip0_45_251">
<rect width="42.6667" height="42.6667" fill="white" transform="translate(18.6667 18.6667)"/>
</clipPath>
</defs>
</svg>
