<svg width="56" height="56" viewBox="0 0 56 56" fill="none" xmlns="http://www.w3.org/2000/svg">
<circle cx="28" cy="28" r="28" fill="#FF69B4"/>
<path d="M32.9778 19.2889L31.2107 21.056L29.232 19.0773V32.9778H26.768V19.0773L24.7893 21.056L23.0222 19.2889L28 14.3111L32.9778 19.2889ZM37.9556 25.5111V39.2C37.9556 40.5689 36.8356 41.6889 35.4667 41.6889H20.5333C19.152 41.6889 18.0444 40.5689 18.0444 39.2V25.5111C18.0444 24.1298 19.152 23.0222 20.5333 23.0222H24.2667V25.5111H20.5333V39.2H35.4667V25.5111H31.7333V23.0222H35.4667C36.8356 23.0222 37.9556 24.1298 37.9556 25.5111Z" fill="#F0F0F0"/>
</svg>
