<svg width="41" height="41" viewBox="0 0 41 41" fill="none" xmlns="http://www.w3.org/2000/svg">
<circle cx="20.5" cy="20.5" r="20" fill="#FF69B4"/>
<g clip-path="url(#clip0_174_372)">
<path d="M24.0556 14.2778L22.7934 15.54L21.38 14.1267V24.0556H19.62V14.1267L18.2067 15.54L16.9445 14.2778L20.5 10.7222L24.0556 14.2778ZM27.6111 18.7222V28.5C27.6111 29.4778 26.8111 30.2778 25.8334 30.2778H15.1667C14.18 30.2778 13.3889 29.4778 13.3889 28.5V18.7222C13.3889 17.7356 14.18 16.9445 15.1667 16.9445H17.8334V18.7222H15.1667V28.5H25.8334V18.7222H23.1667V16.9445H25.8334C26.8111 16.9445 27.6111 17.7356 27.6111 18.7222Z" fill="#333333"/>
</g>
<defs>
<clipPath id="clip0_174_372">
<rect width="21.3333" height="21.3333" fill="white" transform="translate(9.83337 9.83331)"/>
</clipPath>
</defs>
</svg>
